<?xml version="1.0" encoding="UTF-8" standalone="no"?>
<svg
   height="16"
   viewBox="0 0 16 16"
   width="16"
   version="1.1"
   id="svg860"
   sodipodi:docname="template.svg"
   inkscape:version="1.2.2 (b0a8486541, 2022-12-01)"
   inkscape:export-filename="symbolic.svg"
   inkscape:export-xdpi="384"
   inkscape:export-ydpi="384"
   xml:space="preserve"
   xmlns:inkscape="http://www.inkscape.org/namespaces/inkscape"
   xmlns:sodipodi="http://sodipodi.sourceforge.net/DTD/sodipodi-0.dtd"
   xmlns="http://www.w3.org/2000/svg"
   xmlns:svg="http://www.w3.org/2000/svg"><defs
     id="defs864" /><sodipodi:namedview
     id="namedview862"
     pagecolor="#ffffff"
     bordercolor="#ff0505"
     borderopacity="1"
     inkscape:showpageshadow="0"
     inkscape:pageopacity="0"
     inkscape:pagecheckerboard="false"
     inkscape:deskcolor="#ffffff"
     showgrid="true"
     inkscape:zoom="5.6568543"
     inkscape:cx="114.90485"
     inkscape:cy="34.117902"
     inkscape:window-width="1920"
     inkscape:window-height="1001"
     inkscape:window-x="0"
     inkscape:window-y="32"
     inkscape:window-maximized="1"
     inkscape:current-layer="svg860"><inkscape:grid
       type="xygrid"
       id="grid3085"
       empspacing="8"
       empcolor="#737373"
       empopacity="0.17254902"
       color="#3e3e3e"
       opacity="0.14901961"
       visible="true"
       enabled="true" /></sodipodi:namedview><linearGradient
     id="a"
     gradientUnits="userSpaceOnUse"
     x1="4"
     x2="124"
     y1="66.000977"
     y2="66.000977"><stop
       offset="0"
       stop-color="#e6a50a"
       id="stop827" /><stop
       offset="0.0333333"
       stop-color="#f5c211"
       id="stop829" /><stop
       offset="0.0666667"
       stop-color="#e6a50a"
       id="stop831" /><stop
       offset="0.933333"
       stop-color="#e6a50a"
       id="stop833" /><stop
       offset="0.966667"
       stop-color="#f5c211"
       id="stop835" /><stop
       offset="1"
       stop-color="#e6a50a"
       id="stop837" /></linearGradient><path
     id="rect894"
     style="fill:#241f31;stroke-width:4;stroke-linecap:round;stroke-linejoin:round"
     d="M 2,2 C 0.892,2 0,2.8920022 0,4 v 8 c 0,1.107998 0.892,2 2,2 h 12 c 1.108,0 2,-0.892002 2,-2 V 4 C 16,2.8920022 15.108,2 14,2 Z M 5,4 A 4,4 0 0 1 9,8 4,4 0 0 1 5,12 4,4 0 0 1 1,8 4,4 0 0 1 5,4 Z m 6.5,0 C 11.777,4 12,4.2230003 12,4.5 v 5 c 0,0.019264 1.5e-4,0.037956 -0.002,0.056641 0.01,0.139478 -0.0394,0.281577 -0.14649,0.388671 l -0.86914,0.869141 A 1,1 0 0 1 11,11 a 1,1 0 0 1 -1,1 1,1 0 0 1 -1,-1 1,1 0 0 1 1,-1 1,1 0 0 1 0.32812,0.05469 L 11,9.382812 V 4.5 C 11,4.2230003 11.223,4 11.5,4 Z m 1.97461,0 c 0.009,-4.304e-4 0.0167,0 0.0254,0 h 1 c 0.277,0 0.5,0.2230003 0.5,0.5 0,0.2769997 -0.223,0.5 -0.5,0.5 h -1 C 13.223,5 13,4.7769997 13,4.5 13,4.2316565 13.2097,4.0133421 13.47461,4 Z m 0,2 c 0.009,-4.304e-4 0.0167,0 0.0254,0 h 1 c 0.277,0 0.5,0.2230003 0.5,0.5 0,0.2769997 -0.223,0.5 -0.5,0.5 h -1 C 13.223,7 13,6.7769997 13,6.5 13,6.2316565 13.2097,6.0133421 13.47461,6 Z M 5,7 A 1,1 0 0 0 4,8 1,1 0 0 0 5,9 1,1 0 0 0 6,8 1,1 0 0 0 5,7 Z m 8.5,1 h 1 C 14.777,8 15,8.223 15,8.5 v 3 c 0,0.277 -0.223,0.5 -0.5,0.5 h -1 C 13.223,12 13,11.777 13,11.5 v -3 C 13,8.223 13.223,8 13.5,8 Z" /></svg>
