<?xml version="1.0" encoding="UTF-8" standalone="no"?>
<svg
   height="16"
   viewBox="0 0 16 16"
   width="16"
   version="1.1"
   id="svg860"
   sodipodi:docname="scalable.svg"
   inkscape:version="1.2.2 (b0a8486541, 2022-12-01)"
   inkscape:export-filename="../workspace/monophony/source/data/icons/128.png"
   inkscape:export-xdpi="96"
   inkscape:export-ydpi="96"
   xml:space="preserve"
   xmlns:inkscape="http://www.inkscape.org/namespaces/inkscape"
   xmlns:sodipodi="http://sodipodi.sourceforge.net/DTD/sodipodi-0.dtd"
   xmlns="http://www.w3.org/2000/svg"
   xmlns:svg="http://www.w3.org/2000/svg"><defs
     id="defs864" /><sodipodi:namedview
     id="namedview862"
     pagecolor="#ffffff"
     bordercolor="#ff0505"
     borderopacity="1"
     inkscape:showpageshadow="0"
     inkscape:pageopacity="0"
     inkscape:pagecheckerboard="false"
     inkscape:deskcolor="#ffffff"
     showgrid="true"
     inkscape:zoom="16"
     inkscape:cx="166.5625"
     inkscape:cy="13.25"
     inkscape:window-width="1872"
     inkscape:window-height="953"
     inkscape:window-x="24"
     inkscape:window-y="56"
     inkscape:window-maximized="0"
     inkscape:current-layer="svg860"><inkscape:grid
       type="xygrid"
       id="grid3085"
       empspacing="8"
       empcolor="#737373"
       empopacity="0.17254902"
       color="#3e3e3e"
       opacity="0.14901961"
       visible="true"
       enabled="true" /></sodipodi:namedview><linearGradient
     id="a"
     gradientUnits="userSpaceOnUse"
     x1="4"
     x2="124"
     y1="66.000977"
     y2="66.000977"><stop
       offset="0"
       stop-color="#e6a50a"
       id="stop827" /><stop
       offset="0.0333333"
       stop-color="#f5c211"
       id="stop829" /><stop
       offset="0.0666667"
       stop-color="#e6a50a"
       id="stop831" /><stop
       offset="0.933333"
       stop-color="#e6a50a"
       id="stop833" /><stop
       offset="0.966667"
       stop-color="#f5c211"
       id="stop835" /><stop
       offset="1"
       stop-color="#e6a50a"
       id="stop837" /></linearGradient><g
     id="g6407"
     transform="translate(-160)"><path
       id="rect1775"
       style="fill:#241f31;stroke-width:3.85328;stroke-linecap:round;stroke-linejoin:round"
       d="m 163,2 c -1.108,0 -2,0.8920022 -2,2 v 9 c 0,1.107998 0.892,2 2,2 h 10 c 1.108,0 2,-0.892002 2,-2 V 4 c 0,-1.1079978 -0.892,-2 -2,-2 z m 3.5,2 A 4.5,4.5 0 0 1 171,8.5 4.5,4.5 0 0 1 166.5,13 4.5,4.5 0 0 1 162,8.5 4.5,4.5 0 0 1 166.5,4 Z m 6.42773,0 h 0.14454 C 173.5867,4 174,4.4133063 174,4.9277344 V 12.072266 C 174,12.586693 173.5867,13 173.07227,13 h -0.14454 C 172.4133,13 172,12.586693 172,12.072266 V 4.9277344 C 172,4.4133063 172.4133,4 172.92773,4 Z" /><path
       id="path5928"
       style="fill:#241f31;stroke-width:3.99874;stroke-linecap:round;stroke-linejoin:round"
       d="M 168,8.5 A 1.5,1.5 0 0 1 166.5,10 1.5,1.5 0 0 1 165,8.5 1.5,1.5 0 0 1 166.5,7 1.5,1.5 0 0 1 168,8.5 Z" /></g></svg>
