<?xml version="1.0" encoding="UTF-8" standalone="no"?>
<svg
   height="16"
   viewBox="0 0 16 16"
   width="16"
   version="1.1"
   id="svg860"
   sodipodi:docname="template.svg"
   inkscape:version="1.2.2 (b0a8486541, 2022-12-01)"
   inkscape:export-filename="scalable.svg"
   inkscape:export-xdpi="384"
   inkscape:export-ydpi="384"
   xml:space="preserve"
   xmlns:inkscape="http://www.inkscape.org/namespaces/inkscape"
   xmlns:sodipodi="http://sodipodi.sourceforge.net/DTD/sodipodi-0.dtd"
   xmlns="http://www.w3.org/2000/svg"
   xmlns:svg="http://www.w3.org/2000/svg"><defs
     id="defs864" /><sodipodi:namedview
     id="namedview862"
     pagecolor="#ffffff"
     bordercolor="#ff0505"
     borderopacity="1"
     inkscape:showpageshadow="0"
     inkscape:pageopacity="0"
     inkscape:pagecheckerboard="false"
     inkscape:deskcolor="#ffffff"
     showgrid="true"
     inkscape:zoom="16"
     inkscape:cx="166.71875"
     inkscape:cy="8.875"
     inkscape:window-width="1920"
     inkscape:window-height="1001"
     inkscape:window-x="0"
     inkscape:window-y="32"
     inkscape:window-maximized="1"
     inkscape:current-layer="svg860"><inkscape:grid
       type="xygrid"
       id="grid3085"
       empspacing="8"
       empcolor="#737373"
       empopacity="0.17254902"
       color="#3e3e3e"
       opacity="0.14901961"
       visible="true"
       enabled="true" /></sodipodi:namedview><linearGradient
     id="a"
     gradientUnits="userSpaceOnUse"
     x1="4"
     x2="124"
     y1="66.000977"
     y2="66.000977"><stop
       offset="0"
       stop-color="#e6a50a"
       id="stop827" /><stop
       offset="0.0333333"
       stop-color="#f5c211"
       id="stop829" /><stop
       offset="0.0666667"
       stop-color="#e6a50a"
       id="stop831" /><stop
       offset="0.933333"
       stop-color="#e6a50a"
       id="stop833" /><stop
       offset="0.966667"
       stop-color="#f5c211"
       id="stop835" /><stop
       offset="1"
       stop-color="#e6a50a"
       id="stop837" /></linearGradient><g
     style="display:inline;enable-background:new"
     id="g1519"
     transform="translate(-160)"><g
       id="layer1"
       inkscape:label="App Icon"
       style="display:inline"
       transform="translate(0,-172)"><g
         inkscape:groupmode="layer"
         id="layer2"
         inkscape:label="baseplate"
         style="display:inline"
         sodipodi:insensitive="true"><g
           style="display:inline;fill:#000000;enable-background:new"
           transform="matrix(7.9911709,0,0,8.0036407,-167.7909,-4846.0776)"
           id="g12027"
           inkscape:export-xdpi="12"
           inkscape:export-ydpi="12" /><rect
           style="display:inline;overflow:visible;visibility:visible;fill:#f0f0f0;fill-opacity:1;fill-rule:nonzero;stroke:none;stroke-width:0.5;marker:none;enable-background:accumulate"
           id="rect13805"
           width="128"
           height="128"
           x="9.2651362e-08"
           y="172"
           inkscape:label="512x512" /><g
           id="g883"
           style="fill:none;fill-opacity:0.25098;stroke:#a579b3;stroke-opacity:1"
           transform="translate(-24,24)" /><g
           id="g900"
           style="fill:none;fill-opacity:0.25098;stroke:#a579b3;stroke-opacity:1"
           transform="translate(-24,24)" /><rect
           inkscape:label="512x512"
           y="172"
           x="160"
           height="16"
           width="16"
           id="rect859"
           style="display:inline;overflow:visible;visibility:visible;fill:#f0f0f0;fill-opacity:1;fill-rule:nonzero;stroke:none;stroke-width:0.5;marker:none;enable-background:accumulate" /><text
           xml:space="preserve"
           style="font-style:normal;font-variant:normal;font-weight:bold;font-stretch:normal;font-size:4px;line-height:125%;font-family:Cantarell;-inkscape-font-specification:'Cantarell, Bold';text-align:start;writing-mode:lr-tb;text-anchor:start;display:inline;fill:#000000;fill-opacity:1;stroke:none;stroke-width:0.332649;enable-background:new"
           x="0"
           y="164"
           id="text863"
           inkscape:label="icon-name"><tspan
             style="font-size:4px;stroke-width:0.332649"
             sodipodi:role="line"
             id="tspan861"
             x="0"
             y="164">Hicolor</tspan></text><text
           inkscape:label="icon-name"
           id="text867"
           y="164"
           x="160"
           style="font-style:normal;font-variant:normal;font-weight:bold;font-stretch:normal;font-size:4px;line-height:125%;font-family:Cantarell;-inkscape-font-specification:'Cantarell, Bold';text-align:start;writing-mode:lr-tb;text-anchor:start;display:inline;fill:#000000;fill-opacity:1;stroke:none;stroke-width:0.332649;enable-background:new"
           xml:space="preserve"><tspan
             y="164"
             x="160"
             id="tspan865"
             sodipodi:role="line"
             style="font-size:4px;stroke-width:0.332649">Symbolic</tspan></text></g><g
         inkscape:groupmode="layer"
         id="layer9"
         inkscape:label="icons"
         style="display:inline" /><g
         inkscape:groupmode="layer"
         id="layer3"
         inkscape:label="hairlines"
         style="display:inline"
         sodipodi:insensitive="true"><circle
           cx="64.000031"
           cy="236"
           r="59.504131"
           id="circle2892"
           style="display:inline;opacity:0.1;vector-effect:none;fill:none;fill-opacity:1;stroke:#000000;stroke-width:0.99;stroke-linecap:butt;stroke-linejoin:miter;stroke-miterlimit:4;stroke-dasharray:0.99, 0.99;stroke-dashoffset:0;stroke-opacity:1;marker:none;marker-start:none;marker-mid:none;marker-end:none;paint-order:normal;enable-background:new" /><rect
           ry="7.9292889"
           rx="8.701004"
           y="180.49496"
           x="20.495007"
           height="111.01005"
           width="87.009987"
           id="rect2894"
           style="display:inline;opacity:0.1;vector-effect:none;fill:none;fill-opacity:1;stroke:#000000;stroke-width:0.99;stroke-linecap:butt;stroke-linejoin:miter;stroke-miterlimit:4;stroke-dasharray:0.99, 0.99;stroke-dashoffset:0;stroke-opacity:1;marker:none;marker-start:none;marker-mid:none;marker-end:none;paint-order:normal;enable-background:new" /><rect
           ry="7.9238095"
           rx="7.9238095"
           y="184.49524"
           x="12.495266"
           height="103.00952"
           width="103.00952"
           id="rect2896"
           style="display:inline;opacity:0.1;vector-effect:none;fill:none;fill-opacity:1;stroke:#000000;stroke-width:0.99;stroke-linecap:butt;stroke-linejoin:miter;stroke-miterlimit:4;stroke-dasharray:0.99, 0.99;stroke-dashoffset:0;stroke-opacity:1;marker:none;marker-start:none;marker-mid:none;marker-end:none;paint-order:normal;enable-background:new" /><rect
           ry="8.701005"
           rx="7.9292889"
           y="200.49496"
           x="8.4950066"
           height="87.010048"
           width="111.01004"
           id="rect2898"
           style="display:inline;opacity:0.1;vector-effect:none;fill:none;fill-opacity:1;stroke:#000000;stroke-width:0.99;stroke-linecap:butt;stroke-linejoin:miter;stroke-miterlimit:4;stroke-dasharray:0.99, 0.99;stroke-dashoffset:0;stroke-opacity:1;marker:none;marker-start:none;marker-mid:none;marker-end:none;paint-order:normal;enable-background:new" /><path
           inkscape:connector-curvature="0"
           id="path2900"
           d="M 2.6203015e-5,288.99999 H 128.00003"
           style="display:inline;fill:none;stroke:#62a0ea;stroke-width:2;stroke-linecap:butt;stroke-linejoin:miter;stroke-miterlimit:4;stroke-dasharray:none;stroke-opacity:1;enable-background:new" /></g></g></g><path
     id="rect894"
     style="fill:#241f31;stroke-width:4;stroke-linecap:round;stroke-linejoin:round"
     d="M 2,2 C 0.892,2 0,2.8920022 0,4 v 8 c 0,1.107998 0.892,2 2,2 h 12 c 1.108,0 2,-0.892002 2,-2 V 4 C 16,2.8920022 15.108,2 14,2 Z M 5,4 A 4,4 0 0 1 9,8 4,4 0 0 1 5,12 4,4 0 0 1 1,8 4,4 0 0 1 5,4 Z m 6.5,0 C 11.777,4 12,4.2230003 12,4.5 v 5 c 0,0.019264 1.5e-4,0.037956 -0.002,0.056641 0.01,0.139478 -0.0394,0.281577 -0.14649,0.388671 l -0.86914,0.869141 A 1,1 0 0 1 11,11 a 1,1 0 0 1 -1,1 1,1 0 0 1 -1,-1 1,1 0 0 1 1,-1 1,1 0 0 1 0.32812,0.05469 L 11,9.382812 V 4.5 C 11,4.2230003 11.223,4 11.5,4 Z m 1.97461,0 c 0.009,-4.304e-4 0.0167,0 0.0254,0 h 1 c 0.277,0 0.5,0.2230003 0.5,0.5 0,0.2769997 -0.223,0.5 -0.5,0.5 h -1 C 13.223,5 13,4.7769997 13,4.5 13,4.2316565 13.2097,4.0133421 13.47461,4 Z m 0,2 c 0.009,-4.304e-4 0.0167,0 0.0254,0 h 1 c 0.277,0 0.5,0.2230003 0.5,0.5 0,0.2769997 -0.223,0.5 -0.5,0.5 h -1 C 13.223,7 13,6.7769997 13,6.5 13,6.2316565 13.2097,6.0133421 13.47461,6 Z M 5,7 A 1,1 0 0 0 4,8 1,1 0 0 0 5,9 1,1 0 0 0 6,8 1,1 0 0 0 5,7 Z m 8.5,1 h 1 C 14.777,8 15,8.223 15,8.5 v 3 c 0,0.277 -0.223,0.5 -0.5,0.5 h -1 C 13.223,12 13,11.777 13,11.5 v -3 C 13,8.223 13.223,8 13.5,8 Z" /></svg>
