<?xml version="1.0" encoding="UTF-8" standalone="no"?>
<!-- Created with Inkscape (http://www.inkscape.org/) -->

<svg
   width="6.6145835mm"
   height="6.6145835mm"
   viewBox="0 0 6.6145835 6.6145835"
   version="1.1"
   id="svg3260"
   xml:space="preserve"
   inkscape:version="1.2.2 (b0a8486541, 2022-12-01)"
   sodipodi:docname="icon.svg"
   inkscape:export-filename="../../../downloads/icon.png"
   inkscape:export-xdpi="1966.08"
   inkscape:export-ydpi="1966.08"
   xmlns:inkscape="http://www.inkscape.org/namespaces/inkscape"
   xmlns:sodipodi="http://sodipodi.sourceforge.net/DTD/sodipodi-0.dtd"
   xmlns="http://www.w3.org/2000/svg"
   xmlns:svg="http://www.w3.org/2000/svg"><sodipodi:namedview
     id="namedview3262"
     pagecolor="#505050"
     bordercolor="#ffffff"
     borderopacity="1"
     inkscape:showpageshadow="0"
     inkscape:pageopacity="0"
     inkscape:pagecheckerboard="1"
     inkscape:deskcolor="#505050"
     inkscape:document-units="mm"
     showgrid="false"
     inkscape:zoom="13.455443"
     inkscape:cx="1.1147905"
     inkscape:cy="10.181753"
     inkscape:window-width="1920"
     inkscape:window-height="1001"
     inkscape:window-x="0"
     inkscape:window-y="32"
     inkscape:window-maximized="1"
     inkscape:current-layer="layer1" /><defs
     id="defs3257" /><g
     inkscape:label="Layer 1"
     inkscape:groupmode="layer"
     id="layer1"
     transform="translate(-102.39145,-64.803627)"><rect
       style="opacity:1;fill:#e01b24;fill-opacity:1;stroke-width:1.07579;stroke-linecap:round;stroke-linejoin:round"
       id="rect3769"
       width="6.6145835"
       height="6.6145835"
       x="102.39145"
       y="64.803627"
       ry="0" /><path
       id="rect894"
       style="fill:#241f31;fill-opacity:1;stroke-width:1.05833;stroke-linecap:round;stroke-linejoin:round"
       d="m 104.11124,66.523419 c -0.29315,0 -0.52916,0.236009 -0.52916,0.529166 v 2.116667 c 0,0.293158 0.23601,0.529167 0.52916,0.529167 h 3.175 c 0.29316,0 0.52917,-0.236009 0.52917,-0.529167 v -2.116667 c 0,-0.293157 -0.23601,-0.529166 -0.52917,-0.529166 z m 0.79375,0.529166 a 1.0583333,1.0583333 0 0 1 1.05834,1.058334 1.0583333,1.0583333 0 0 1 -1.05834,1.058333 1.0583333,1.0583333 0 0 1 -1.05833,-1.058333 1.0583333,1.0583333 0 0 1 1.05833,-1.058334 z m 1.7198,0 c 0.0733,0 0.13229,0.059 0.13229,0.132292 v 1.322917 c 0,0.0051 4e-5,0.01004 -5.3e-4,0.01499 0.003,0.0369 -0.0104,0.0745 -0.0388,0.102836 l -0.22996,0.22996 a 0.26458333,0.26458333 0 0 1 0.005,0.04909 0.26458333,0.26458333 0 0 1 -0.26458,0.264583 0.26458333,0.26458333 0 0 1 -0.26458,-0.264583 0.26458333,0.26458333 0 0 1 0.26458,-0.264584 0.26458333,0.26458333 0 0 1 0.0868,0.01447 l 0.17776,-0.177767 v -1.291911 c 0,-0.07329 0.059,-0.132292 0.1323,-0.132292 z m 0.52244,0 c 0.002,-1.14e-4 0.004,0 0.007,0 h 0.26458 c 0.0733,0 0.13229,0.059 0.13229,0.132292 0,0.07329 -0.059,0.132292 -0.13229,0.132292 h -0.26458 c -0.0733,0 -0.1323,-0.059 -0.1323,-0.132292 0,-0.071 0.0555,-0.128762 0.12557,-0.132292 z m 0,0.529167 c 0.002,-1.14e-4 0.004,0 0.007,0 h 0.26458 c 0.0733,0 0.13229,0.059 0.13229,0.132292 0,0.07329 -0.059,0.132291 -0.13229,0.132291 h -0.26458 c -0.0733,0 -0.1323,-0.059 -0.1323,-0.132291 0,-0.071 0.0555,-0.128762 0.12557,-0.132292 z m -2.24224,0.264583 a 0.26458333,0.26458333 0 0 0 -0.26458,0.264584 0.26458333,0.26458333 0 0 0 0.26458,0.264583 0.26458333,0.26458333 0 0 0 0.26459,-0.264583 0.26458333,0.26458333 0 0 0 -0.26459,-0.264584 z m 2.24896,0.264584 h 0.26459 c 0.0733,0 0.13229,0.059 0.13229,0.132291 v 0.79375 c 0,0.07329 -0.059,0.132292 -0.13229,0.132292 h -0.26459 c -0.0733,0 -0.13229,-0.059 -0.13229,-0.132292 v -0.79375 c 0,-0.07329 0.059,-0.132291 0.13229,-0.132291 z" /></g></svg>
